<svg width="66" height="40" viewBox="0 0 66 40" fill="none" xmlns="http://www.w3.org/2000/svg">
<rect x="0.5" y="0.5" width="65" height="39" rx="5.5" fill="white" stroke="#3D3D3D"/>
<path d="M31.312 13.31V19.764H29.45V13.31H31.312ZM22.576 16.628C22.576 17.552 23.29 18.084 24.242 18.084C25.194 18.084 25.88 17.552 25.88 16.628C25.88 15.718 25.194 15.172 24.242 15.172C23.29 15.172 22.576 15.718 22.576 16.628ZM27.672 16.628C27.672 18.35 26.202 19.582 24.242 19.582C22.268 19.582 20.784 18.35 20.784 16.628C20.784 14.92 22.268 13.688 24.242 13.688C26.202 13.688 27.672 14.92 27.672 16.628ZM24.564 24.622H31.634V26.05H22.73V22.494H29.478V21.71H22.716V20.296H31.312V23.81H24.564V24.622ZM38.2129 19.33V17.496H35.6789V19.33H38.2129ZM40.0329 14.234V20.786H33.8589V14.234H35.6789V16.068H38.2129V14.234H40.0329ZM37.1629 21.864V24.51H44.0929V25.98H35.3149V21.864H37.1629ZM43.6309 16.95H45.3389V18.462H43.6309V22.802H41.7829V13.31H43.6309V16.95Z" fill="#3D3D3D"/>
</svg>
