<svg width="66" height="40" viewBox="0 0 66 40" fill="none" xmlns="http://www.w3.org/2000/svg">
<rect x="0.5" y="0.5" width="65" height="39" rx="5.5" fill="white" stroke="#B9B9B9"/>
<path d="M31.13 13.422V19.848H29.688V13.422H31.13ZM22.352 16.698C22.352 17.706 23.164 18.364 24.256 18.364C25.362 18.364 26.188 17.706 26.188 16.698C26.188 15.69 25.362 15.032 24.256 15.032C23.164 15.032 22.352 15.69 22.352 16.698ZM27.588 16.698C27.588 18.364 26.174 19.54 24.256 19.54C22.352 19.54 20.952 18.364 20.952 16.698C20.952 15.032 22.352 13.842 24.256 13.842C26.174 13.842 27.588 15.032 27.588 16.698ZM24.284 24.79H31.508V25.924H22.87V22.606H29.702V21.556H22.842V20.422H31.13V23.67H24.284V24.79ZM38.5629 19.526V17.44H35.4689V19.526H38.5629ZM39.9909 14.346V20.688H34.0269V14.346H35.4689V16.32H38.5629V14.346H39.9909ZM36.9109 21.836V24.664H43.9669V25.84H35.4549V21.836H36.9109ZM43.4629 17.16H45.2549V18.35H43.4629V22.732H42.0209V13.45H43.4629V17.16Z" fill="#3D3D3D"/>
</svg>
