<svg width="105" height="40" viewBox="0 0 105 40" fill="none" xmlns="http://www.w3.org/2000/svg">
<rect x="0.5" y="0.5" width="104" height="39" rx="5.5" fill="white" stroke="#3D3D3D"/>
<path d="M24.396 22.172C25.418 22.172 26.16 21.472 26.16 20.408C26.16 19.344 25.418 18.644 24.396 18.644C23.374 18.644 22.632 19.344 22.632 20.408C22.632 21.472 23.374 22.172 24.396 22.172ZM24.396 17.454C26.202 17.454 27.532 18.686 27.532 20.408C27.532 22.144 26.202 23.362 24.396 23.362C22.576 23.362 21.26 22.144 21.26 20.408C21.26 18.686 22.576 17.454 24.396 17.454ZM25.096 13.632V15.382H28.05V16.558H20.644V15.382H23.654V13.632H25.096ZM32.474 18.518V19.722H30.528V26.092H29.072V13.436H30.528V18.518H32.474ZM42.5389 13.422H43.9949V26.106H42.5389V13.422ZM37.2609 14.36C39.1509 14.36 40.5229 16.096 40.5229 18.812C40.5229 21.556 39.1509 23.278 37.2609 23.278C35.3849 23.278 34.0129 21.556 34.0129 18.812C34.0129 16.096 35.3849 14.36 37.2609 14.36ZM37.2609 15.662C36.1689 15.662 35.3989 16.852 35.3989 18.812C35.3989 20.8 36.1689 21.99 37.2609 21.99C38.3669 21.99 39.1369 20.8 39.1369 18.812C39.1369 16.852 38.3669 15.662 37.2609 15.662ZM46.4718 23.306H57.9238V24.496H46.4718V23.306ZM47.7598 14.304H49.1878V16.516H55.1798V14.304H56.6078V20.968H47.7598V14.304ZM49.1878 17.664V19.806H55.1798V17.664H49.1878ZM61.5207 19.246V21.906C63.5227 21.892 65.2727 21.794 67.2747 21.472L67.4287 22.648C65.2587 23.026 63.3687 23.096 61.1427 23.096H60.0647V18.084H64.4747V15.732H60.0367V14.556H65.9307V19.246H61.5207ZM68.3247 13.408H69.7807V26.106H68.3247V13.408ZM82.3936 19.4V20.562H73.6296V14.542H82.2956V15.718H75.0716V19.4H82.3936ZM72.2296 23.264H83.6956V24.454H72.2296V23.264Z" fill="#3D3D3D"/>
</svg>
