<svg width="95" height="40" viewBox="0 0 95 40" fill="none" xmlns="http://www.w3.org/2000/svg">
<rect x="0.5" y="0.5" width="94" height="39" rx="5.5" fill="#676AC6" stroke="#515398"/>
<path d="M43.744 19.512V21.682C44.962 21.654 46.11 21.584 47.412 21.374L47.566 22.858C45.9 23.152 44.472 23.194 42.862 23.194H41.952V18.056H44.71V16.04H41.938V14.57H46.502V19.512H43.744ZM48.294 17.692V13.534H50.002V25.602H48.294V19.204H47.02V17.692H48.294ZM50.912 13.296H52.662V26.19H50.912V13.296ZM63.3149 13.296H65.1629V26.232H63.3149V13.296ZM58.2329 14.206C60.1789 14.206 61.6209 15.97 61.6209 18.798C61.6209 21.64 60.1789 23.418 58.2329 23.418C56.2869 23.418 54.8449 21.64 54.8449 18.798C54.8449 15.97 56.2869 14.206 58.2329 14.206ZM58.2329 15.872C57.2809 15.872 56.6229 16.894 56.6229 18.798C56.6229 20.716 57.2809 21.738 58.2329 21.738C59.1849 21.738 59.8429 20.716 59.8429 18.798C59.8429 16.894 59.1849 15.872 58.2329 15.872ZM70.8878 21.738C71.8398 21.738 72.4698 20.716 72.4698 18.798C72.4698 16.894 71.8398 15.872 70.8878 15.872C69.9498 15.872 69.3198 16.894 69.3198 18.798C69.3198 20.716 69.9498 21.738 70.8878 21.738ZM76.3338 13.296H78.1818V26.232H76.3338V19.442H74.1918C73.9958 21.906 72.6798 23.418 70.8878 23.418C68.9698 23.418 67.5558 21.64 67.5558 18.798C67.5558 15.97 68.9698 14.206 70.8878 14.206C72.6238 14.206 73.9258 15.62 74.1778 17.944H76.3338V13.296Z" fill="white"/>
<path d="M29.5716 15.4769L21.2786 12.0555C21.1004 11.9821 20.8993 11.9821 20.7214 12.0555L12.4284 15.4769C12.1686 15.5841 12.0002 15.8303 12.0002 16.1025C12.0005 16.3747 12.1696 16.6201 12.4298 16.727L20.7228 20.1258C20.8114 20.1619 20.9056 20.1802 20.9998 20.1802C21.0941 20.1802 21.1886 20.1619 21.2765 20.1258L29.5695 16.727C29.8297 16.6205 29.9991 16.3747 29.9991 16.1025C29.9991 15.8306 29.8318 15.5841 29.5716 15.4769ZM21.0002 18.7614L14.5051 16.0994L21.0002 13.4195L27.4953 16.0994L21.0002 18.7614Z" fill="white"/>
<path d="M29.9429 22.6309C29.7889 22.2857 29.3727 22.1261 29.0148 22.2742L21.0002 25.5807L12.9856 22.2742C12.6263 22.1254 12.2115 22.286 12.0575 22.6309C11.9035 22.9758 12.0694 23.3755 12.4284 23.5236L20.7214 26.9453C20.8103 26.9822 20.9053 27.0004 21.0002 27.0004C21.0951 27.0004 21.1897 26.9822 21.279 26.9453L29.572 23.5236C29.9306 23.3755 30.0965 22.9758 29.9429 22.6309Z" fill="white"/>
<path d="M29.9436 19.2335C29.7903 18.8883 29.3751 18.7277 29.0162 18.8747L21.0002 22.1599L12.9846 18.8747C12.6253 18.7273 12.2101 18.8883 12.0571 19.2335C11.9039 19.5791 12.0709 19.9784 12.4302 20.1255L20.7232 23.5242C20.8118 23.5604 20.906 23.5787 21.0002 23.5787C21.0944 23.5787 21.189 23.5604 21.2772 23.5242L29.5702 20.1255C29.9292 19.9784 30.0965 19.5791 29.9436 19.2335Z" fill="white"/>
<path d="M29.5716 15.4769L21.2786 12.0555C21.1004 11.9821 20.8993 11.9821 20.7214 12.0555L12.4284 15.4769C12.1686 15.5841 12.0002 15.8303 12.0002 16.1025C12.0005 16.3747 12.1696 16.6201 12.4298 16.727L20.7228 20.1258C20.8114 20.1619 20.9056 20.1802 20.9998 20.1802C21.0941 20.1802 21.1886 20.1619 21.2765 20.1258L29.5695 16.727C29.8297 16.6205 29.9991 16.3747 29.9991 16.1025C29.9991 15.8306 29.8318 15.5841 29.5716 15.4769ZM21.0002 18.7614L14.5051 16.0994L21.0002 13.4195L27.4953 16.0994L21.0002 18.7614Z" stroke="white" stroke-width="0.3"/>
<path d="M29.9429 22.6309C29.7889 22.2857 29.3727 22.1261 29.0148 22.2742L21.0002 25.5807L12.9856 22.2742C12.6263 22.1254 12.2115 22.286 12.0575 22.6309C11.9035 22.9758 12.0694 23.3755 12.4284 23.5236L20.7214 26.9453C20.8103 26.9822 20.9053 27.0004 21.0002 27.0004C21.0951 27.0004 21.1897 26.9822 21.279 26.9453L29.572 23.5236C29.9306 23.3755 30.0965 22.9758 29.9429 22.6309Z" stroke="white" stroke-width="0.3"/>
<path d="M29.9436 19.2335C29.7903 18.8883 29.3751 18.7277 29.0162 18.8747L21.0002 22.1599L12.9846 18.8747C12.6253 18.7273 12.2101 18.8883 12.0571 19.2335C11.9039 19.5791 12.0709 19.9784 12.4302 20.1255L20.7232 23.5242C20.8118 23.5604 20.906 23.5787 21.0002 23.5787C21.0944 23.5787 21.189 23.5604 21.2772 23.5242L29.5702 20.1255C29.9292 19.9784 30.0965 19.5791 29.9436 19.2335Z" stroke="white" stroke-width="0.3"/>
</svg>
