<svg width="95" height="40" viewBox="0 0 95 40" fill="none" xmlns="http://www.w3.org/2000/svg">
<rect x="0.5" y="0.5" width="94" height="39" rx="5.5" fill="white" stroke="#B9B9B9"/>
<path d="M42.022 21.878H42.904C44.458 21.878 45.858 21.836 47.538 21.542L47.664 22.732C45.942 23.04 44.5 23.082 42.904 23.082H42.022V21.878ZM41.994 14.71H46.544V19.358H43.45V22.354H42.022V18.182H45.13V15.886H41.994V14.71ZM51.15 13.366H52.55V26.162H51.15V13.366ZM47.118 17.846H49.148V19.05H47.118V17.846ZM48.56 13.646H49.918V25.518H48.56V13.646ZM63.5809 13.352H65.0509V26.176H63.5809V13.352ZM58.2329 14.304C60.1509 14.304 61.5369 16.054 61.5369 18.812C61.5369 21.57 60.1509 23.334 58.2329 23.334C56.3289 23.334 54.9429 21.57 54.9429 18.812C54.9429 16.054 56.3289 14.304 58.2329 14.304ZM58.2329 15.634C57.1129 15.634 56.3429 16.824 56.3429 18.812C56.3429 20.814 57.1129 22.018 58.2329 22.018C59.3529 22.018 60.1229 20.814 60.1229 18.812C60.1229 16.824 59.3529 15.634 58.2329 15.634ZM70.8458 14.304C72.7358 14.304 74.0798 16.054 74.0798 18.812C74.0798 21.57 72.7358 23.334 70.8458 23.334C68.9558 23.334 67.6118 21.57 67.6118 18.812C67.6118 16.054 68.9558 14.304 70.8458 14.304ZM70.8458 15.634C69.7538 15.634 69.0118 16.824 69.0118 18.812C69.0118 20.814 69.7538 22.018 70.8458 22.018C71.9518 22.018 72.6938 20.814 72.6938 18.812C72.6938 16.824 71.9518 15.634 70.8458 15.634ZM76.5578 13.352H78.0138V26.176H76.5578V13.352ZM73.6318 18.126H77.1878V19.302H73.6318V18.126Z" fill="#3D3D3D"/>
<path d="M29.5716 15.4769L21.2786 12.0555C21.1004 11.9821 20.8993 11.9821 20.7214 12.0555L12.4284 15.4769C12.1686 15.5841 12.0002 15.8303 12.0002 16.1025C12.0005 16.3747 12.1696 16.6201 12.4298 16.727L20.7228 20.1258C20.8114 20.1619 20.9056 20.1802 20.9998 20.1802C21.0941 20.1802 21.1886 20.1619 21.2765 20.1258L29.5695 16.727C29.8297 16.6205 29.9991 16.3747 29.9991 16.1025C29.9991 15.8306 29.8318 15.5841 29.5716 15.4769ZM21.0002 18.7614L14.5051 16.0994L21.0002 13.4195L27.4953 16.0994L21.0002 18.7614Z" fill="#A1A1A1"/>
<path d="M29.9429 22.6309C29.7889 22.2857 29.3727 22.1261 29.0148 22.2742L21.0002 25.5807L12.9856 22.2742C12.6263 22.1254 12.2115 22.286 12.0575 22.6309C11.9035 22.9758 12.0694 23.3755 12.4284 23.5236L20.7214 26.9453C20.8103 26.9822 20.9053 27.0004 21.0002 27.0004C21.0951 27.0004 21.1897 26.9822 21.279 26.9453L29.572 23.5236C29.9306 23.3755 30.0965 22.9758 29.9429 22.6309Z" fill="#A1A1A1"/>
<path d="M29.9436 19.2335C29.7903 18.8883 29.3751 18.7277 29.0162 18.8747L21.0002 22.1599L12.9846 18.8747C12.6253 18.7273 12.2101 18.8883 12.0571 19.2335C11.9039 19.5791 12.0709 19.9784 12.4302 20.1255L20.7232 23.5242C20.8118 23.5604 20.906 23.5787 21.0002 23.5787C21.0944 23.5787 21.189 23.5604 21.2772 23.5242L29.5702 20.1255C29.9292 19.9784 30.0965 19.5791 29.9436 19.2335Z" fill="#A1A1A1"/>
</svg>
