<svg width="50" height="74" viewBox="0 0 50 74" fill="none" xmlns="http://www.w3.org/2000/svg">
<rect width="50" height="50" rx="6" fill="#676AC6"/>
<path d="M7.89156 54.88H11.4416C11.4416 57.29 10.6516 59.42 8.11156 60.88L7.51156 60.15C9.46156 59.02 10.2816 57.54 10.4216 55.72H7.89156V54.88ZM14.2616 53.74H15.2416V62.77H14.2616V58.11H13.2316V62.35H12.2616V53.98H13.2316V57.27H14.2616V53.74ZM20.0108 57.25V56.1H17.8008V57.25H20.0108ZM21.0308 54.12V58.07H16.7708V54.12H17.8008V55.31H20.0108V54.12H21.0308ZM18.7108 61.08V61.88H23.8108V62.69H17.7008V60.32H22.4908V59.57H17.6808V58.77H23.5108V61.08H18.7108ZM23.5108 55.59H24.7808V56.44H23.5108V58.37H22.4808V53.74H23.5108V55.59ZM31.08 56.94V59.12H30.12V53.91H31.08V56.09H32.02V53.73H33V59.43H32.02V56.94H31.08ZM29.81 54.75V55.56H25.31V54.75H27.06V53.82H28.07V54.75H29.81ZM26.56 57.51C26.56 58 26.96 58.32 27.57 58.32C28.18 58.32 28.59 58 28.59 57.51C28.59 57.02 28.18 56.7 27.57 56.7C26.96 56.7 26.56 57.02 26.56 57.51ZM29.51 57.51C29.51 58.45 28.71 59.07 27.57 59.07C26.44 59.07 25.64 58.45 25.64 57.51C25.64 56.58 26.44 55.95 27.57 55.95C28.71 55.95 29.51 56.58 29.51 57.51ZM30 61.99C31.3 61.99 32.02 61.7 32.02 61.16C32.02 60.62 31.3 60.34 30 60.34C28.71 60.34 27.97 60.62 27.97 61.16C27.97 61.7 28.71 61.99 30 61.99ZM30 59.56C31.9 59.56 33.05 60.14 33.05 61.16C33.05 62.18 31.9 62.77 30 62.77C28.09 62.77 26.94 62.18 26.94 61.16C26.94 60.14 28.09 59.56 30 59.56ZM37.1992 54.98C36.4192 54.98 35.8592 55.39 35.8592 56.02C35.8592 56.66 36.4192 57.07 37.1992 57.07C37.9892 57.07 38.5392 56.66 38.5392 56.02C38.5392 55.39 37.9892 54.98 37.1992 54.98ZM37.1992 57.92C35.8492 57.92 34.8692 57.14 34.8692 56.02C34.8692 54.91 35.8492 54.13 37.1992 54.13C38.5492 54.13 39.5292 54.91 39.5292 56.02C39.5292 57.14 38.5492 57.92 37.1992 57.92ZM40.1092 58.26L40.1792 59.02C39.3892 59.18 38.5592 59.27 37.7592 59.33V62.5H36.7292V59.39C35.8792 59.42 35.0792 59.43 34.3792 59.43L34.2592 58.58C35.8892 58.58 38.1592 58.55 40.1092 58.26ZM40.6992 53.74H41.7292V62.78H40.6992V53.74ZM10.3016 66.57V67.22C10.3016 68.76 10.8816 70.32 12.1416 71.05L11.5416 71.8C10.6916 71.3 10.1316 70.41 9.81156 69.36C9.49156 70.5 8.91156 71.47 8.04156 72.02L7.42156 71.26C8.70156 70.46 9.30156 68.83 9.30156 67.22V66.57H7.71156V65.72H11.7916V66.57H10.3016ZM12.4616 67.91V64.91H13.4316V73.33H12.4616V68.75H11.1316V67.91H12.4616ZM14.2816 64.73H15.2616V73.76H14.2816V64.73ZM21.8008 65.77V66.59H16.4708V65.77H18.6208V64.74H19.6508V65.77H21.8008ZM17.9308 68.72C17.9308 69.29 18.4208 69.63 19.1308 69.63C19.8508 69.63 20.3408 69.29 20.3408 68.72C20.3408 68.15 19.8508 67.81 19.1308 67.81C18.4208 67.81 17.9308 68.15 17.9308 68.72ZM21.3208 68.72C21.3208 69.75 20.4308 70.43 19.1308 70.43C17.8408 70.43 16.9408 69.75 16.9408 68.72C16.9408 67.7 17.8408 67.01 19.1308 67.01C20.4308 67.01 21.3208 67.7 21.3208 68.72ZM18.8308 70.99V72.76H23.8708V73.6H17.7908V70.99H18.8308ZM23.5108 67.62H24.7908V68.47H23.5108V71.51H22.4808V64.74H23.5108V67.62ZM33.53 69.15V70H29.93V73.77H28.89V70H25.36V69.15H31.23C31.49 67.89 31.49 66.95 31.49 66.12H26.34V65.29H32.5V66.08C32.5 66.93 32.5 67.87 32.27 69.15H33.53ZM35.6492 71.36V70.53H41.7392V73.78H40.7092V71.36H35.6492ZM38.9992 68.01H40.7092V66.85H39.0092C39.0492 67.03 39.0792 67.22 39.0792 67.43C39.0792 67.63 39.0492 67.83 38.9992 68.01ZM36.7292 68.75C37.5092 68.75 38.0992 68.22 38.0992 67.43C38.0992 66.64 37.5092 66.1 36.7292 66.1C35.9492 66.1 35.3592 66.64 35.3592 67.43C35.3592 68.22 35.9492 68.75 36.7292 68.75ZM40.7092 64.74L41.7392 64.73V70.08H40.7092V68.85H38.5692C38.1492 69.34 37.4892 69.64 36.7292 69.63C35.3892 69.63 34.3792 68.71 34.3792 67.43C34.3792 66.14 35.3892 65.23 36.7292 65.23C37.4892 65.23 38.1492 65.53 38.5692 66.01H40.7092V64.74Z" fill="#3D3D3D"/>
<path d="M29.293 20.3969C29.293 18.0016 27.3737 16.0609 25.0046 16.0609C22.6356 16.0609 20.7163 18.0016 20.7163 20.3969C20.7163 22.7922 22.6356 24.7328 25.0046 24.7328C27.3737 24.7328 29.293 22.7922 29.293 20.3969ZM22.1488 20.3969C22.1488 18.8031 23.4284 17.5094 25.0046 17.5094C26.5809 17.5094 27.8605 18.8078 27.8605 20.3969C27.8605 21.9859 26.5809 23.2844 25.0046 23.2844C23.4284 23.2844 22.1488 21.9906 22.1488 20.3969Z" fill="white"/>
<path d="M25.0046 18.4375C23.9337 18.4375 23.0668 19.3188 23.0668 20.3969C23.0668 20.7578 23.1641 21.1094 23.3496 21.4141L26.0107 18.7234C25.7093 18.5359 25.3616 18.4375 25.0046 18.4375Z" fill="white"/>
<path d="M26.9425 20.3969C26.9425 20.0359 26.8452 19.6844 26.6597 19.3797L23.9986 22.0703C24.3 22.2578 24.6477 22.3563 25.0046 22.3563C26.0756 22.3563 26.9425 21.475 26.9425 20.3969Z" fill="white"/>
<path d="M31.1799 29.2563C30.8044 29.1297 30.3917 29.275 30.1692 29.6078L30.1599 29.6219C29.8493 30.0953 30.0487 30.7375 30.5726 30.9438C31.7316 31.4031 32.4316 32.0031 32.4316 32.6641C32.4316 34.0984 29.0983 35.2656 25 35.2656C20.9017 35.2656 17.573 34.0984 17.573 32.6641C17.573 32.0078 18.2777 31.4031 19.4321 30.9438C19.956 30.7375 20.1599 30.0953 19.8447 29.6219C19.8401 29.6172 19.8401 29.6125 19.8354 29.6078C19.6175 29.275 19.2003 29.1297 18.8248 29.2563C16.4928 30.0484 15 31.2812 15 32.6641C15 35.0594 19.4784 37 25 37C30.5216 37 35 35.0594 35 32.6641C35.0046 31.2812 33.5118 30.0484 31.1799 29.2563Z" fill="white"/>
<path d="M26.1451 32.0922C28.1989 29.3453 32.3204 23.4625 32.3204 20.3969C32.3204 16.3141 29.0473 13 25.0046 13C20.962 13 17.6889 16.3141 17.6889 20.3969C17.6889 23.4625 21.8104 29.35 23.8642 32.0922C24.439 32.8563 25.5702 32.8563 26.1451 32.0922ZM19.3255 20.3969C19.3255 17.2234 21.866 14.6547 25.0046 14.6547C28.1433 14.6547 30.6838 17.2234 30.6838 20.3969C30.6838 23.5703 28.1386 26.1391 25.0046 26.1391C21.8707 26.1391 19.3255 23.5656 19.3255 20.3969Z" fill="white"/>
</svg>
