<svg width="50" height="66" viewBox="0 0 50 66" fill="none" xmlns="http://www.w3.org/2000/svg">
<rect width="50" height="50" rx="6" fill="#676AC6"/>
<path d="M15.8412 56.49V57.35C15.8412 58.85 16.7712 60.41 18.1812 61.01L17.6112 61.82C16.5612 61.36 15.7512 60.38 15.3312 59.21C14.9312 60.47 14.1212 61.54 13.0612 62.05L12.4712 61.23C13.8712 60.58 14.8012 58.9 14.8012 57.35V56.49H12.7912V55.64H17.8512V56.49H15.8412ZM18.9012 54.74H19.9412V63.77H18.9012V54.74ZM26.7804 59.02L26.2704 59.82C25.2704 59.47 24.5504 58.76 24.1604 57.89C23.7604 58.86 23.0004 59.64 21.9304 60.01L21.4004 59.2C22.8004 58.72 23.6204 57.53 23.6204 56.31V56.13H21.7104V55.3H26.5404V56.13H24.6604V56.3C24.6604 57.42 25.4304 58.55 26.7804 59.02ZM22.8004 61.41V60.58H28.8904V63.77H27.8604V61.41H22.8004ZM27.8604 54.73H28.8904V60.13H27.8604V57.85H26.2804V57H27.8604V54.73ZM34.8996 61.84H38.4896V62.69H30.3096V61.84H33.8696V59.71H31.3096V55.42H37.4896V56.25H32.3396V58.88H37.5696V59.71H34.8996V61.84Z" fill="#3D3D3D"/>
<path d="M13 21.6862V30.1643L16.7657 27.8924L13 21.6862Z" fill="white"/>
<path d="M15.2767 22.9186L17.8848 27.2176L22.2776 24.5676L19.9095 18.9776L15.2767 22.9186Z" fill="white"/>
<path d="M13 19.1657L14.5019 21.6414L19.3067 17.5538L17.3776 13H16.0195C14.3519 13 13 14.3519 13 16.0195V19.1657Z" fill="white"/>
<path d="M24.6662 31.0633L31.0776 27.1081L30.5495 21.6924L23.7881 25.4862L24.6662 31.0633Z" fill="white"/>
<path d="M22.7138 26.1152L18.4838 28.6671L20.4171 36.3548L23.6314 31.9395L22.7138 26.1152Z" fill="white"/>
<path d="M32.2405 27.1948L37 29.1871V18.0729L31.6438 21.0781L32.2405 27.1948Z" fill="white"/>
<path d="M16.0195 37H19.361L17.4262 29.3052L13 31.9752V33.9805C13 35.6481 14.3519 37 16.0195 37Z" fill="white"/>
<path d="M30.8562 13L31.4781 19.3781L37 16.2795V16.019C37 14.3519 35.6481 13 33.9805 13H30.8562Z" fill="white"/>
<path d="M37 33.9805V30.929L32.4171 29.0105L33.1962 37.0005H33.9805C35.6481 37.0005 37 35.6481 37 33.9805Z" fill="white"/>
<path d="M27.86 30.9095L27.4643 37H32.0419L31.2448 28.8219L27.86 30.9095Z" fill="white"/>
<path d="M21.6181 37H26.3162L26.6643 31.6476L24.5786 32.9343L21.6181 37Z" fill="white"/>
<path d="M18.7224 13L20.2952 16.7124L24.6338 13H18.7224Z" fill="white"/>
<path d="M26.901 13L20.8986 18.1362L23.3557 23.9362L30.3838 19.9929L29.7014 13H26.901Z" fill="white"/>
</svg>
