<svg width="66" height="40" viewBox="0 0 66 40" fill="none" xmlns="http://www.w3.org/2000/svg">
<rect x="0.5" y="0.5" width="65" height="39" rx="5.5" fill="#676AC6" stroke="#515398"/>
<path d="M24.83 15.172C23.738 15.172 22.954 15.746 22.954 16.628C22.954 17.524 23.738 18.098 24.83 18.098C25.936 18.098 26.706 17.524 26.706 16.628C26.706 15.746 25.936 15.172 24.83 15.172ZM24.83 19.288C22.94 19.288 21.568 18.196 21.568 16.628C21.568 15.074 22.94 13.982 24.83 13.982C26.72 13.982 28.092 15.074 28.092 16.628C28.092 18.196 26.72 19.288 24.83 19.288ZM28.904 19.764L29.002 20.828C27.896 21.052 26.734 21.178 25.614 21.262V25.7H24.172V21.346C22.982 21.388 21.862 21.402 20.882 21.402L20.714 20.212C22.996 20.212 26.174 20.17 28.904 19.764ZM29.73 13.436H31.172V26.092H29.73V13.436ZM42.6229 20.884V17.132H40.0609V15.956H42.6229V13.422H44.0649V20.884H42.6229ZM41.0969 19.246L40.3269 20.38C38.9689 19.89 37.9889 18.938 37.4429 17.706C36.8829 19.106 35.8189 20.212 34.2929 20.758L33.5369 19.596C35.5669 18.91 36.6729 17.202 36.6729 15.354V14.108H38.1289V15.284C38.1289 17.034 39.1789 18.616 41.0969 19.246ZM39.8509 24.944C41.6429 24.944 42.6789 24.482 42.6789 23.656C42.6789 22.83 41.6429 22.368 39.8509 22.368C38.0589 22.368 37.0369 22.83 37.0369 23.656C37.0369 24.482 38.0589 24.944 39.8509 24.944ZM39.8509 21.234C42.4969 21.234 44.1209 22.13 44.1209 23.656C44.1209 25.182 42.4969 26.078 39.8509 26.078C37.2189 26.078 35.5949 25.182 35.5949 23.656C35.5949 22.13 37.2189 21.234 39.8509 21.234Z" fill="white"/>
</svg>
