<svg width="82" height="40" viewBox="0 0 82 40" fill="none" xmlns="http://www.w3.org/2000/svg">
<rect x="0.5" y="0.5" width="81" height="39" rx="5.5" fill="white" stroke="#B9B9B9"/>
<path d="M42.47 14.192H48.21C48.21 17.468 46.04 19.736 42.386 20.772L41.798 19.624C44.696 18.84 46.404 17.314 46.656 15.368H42.47V14.192ZM45.368 22.256V24.762H50.772V22.256H45.368ZM43.954 25.924V21.108H52.186V25.924H43.954ZM50.744 13.422H52.186V20.59H50.744V17.762H48.238V16.572H50.744V13.422ZM60.9209 19.274L60.1509 20.366C59.0309 19.904 58.2469 19.05 57.7849 18.028C57.3229 19.19 56.4969 20.17 55.2929 20.702L54.5229 19.596C56.2169 18.826 57.0709 17.216 57.0709 15.774V14.164H58.4709V15.774C58.4709 17.188 59.2829 18.616 60.9209 19.274ZM56.7209 22.886V21.724H65.2889V26.092H63.8469V22.886H56.7209ZM63.9169 13.436H65.2889V21.094H63.9169V17.804H62.5869V21.024H61.2289V13.646H62.5869V16.628H63.9169V13.436Z" fill="#3D3D3D"/>
<path d="M23.1019 17.6605C22.7871 17.6605 22.5118 17.459 22.4166 17.1587C22.1537 16.3307 21.5292 15.6675 20.7031 15.3393C20.5246 15.2684 20.3845 15.1322 20.3083 14.9556C20.2322 14.7791 20.2292 14.5838 20.3005 14.4049C20.3093 14.3826 20.3195 14.3606 20.3303 14.3393C20.4544 14.1 20.6989 13.9514 20.969 13.9514C21.0599 13.9514 21.1492 13.9684 21.2345 14.0022C22.4629 14.4906 23.3936 15.4824 23.7874 16.7232C23.8455 16.9064 23.8291 17.101 23.7405 17.2716C23.6522 17.4423 23.5026 17.5683 23.3194 17.6264C23.2486 17.649 23.1757 17.6605 23.1019 17.6605Z" fill="#A1A1A1"/>
<path d="M28.2806 28C28.0886 28 27.9081 27.9252 27.7719 27.7893L23.7481 23.7654C22.4655 24.8153 20.8525 25.3926 19.1958 25.3926C15.2284 25.3926 12 22.1642 12 18.1964C12 14.2287 15.2284 11 19.1964 11C23.1645 11 26.3929 14.2284 26.3929 18.1964C26.3929 19.8531 25.8156 21.4658 24.7658 22.7487L28.7896 26.7726C28.9255 26.9085 29.0003 27.089 29.0003 27.2813C29.0003 27.4736 28.9255 27.6541 28.7896 27.79C28.6538 27.9258 28.4729 28 28.2806 28ZM19.1964 12.4384C16.0216 12.4384 13.4388 15.0213 13.4388 18.1961C13.4388 21.371 16.0216 23.9538 19.1964 23.9538C20.6999 23.9538 22.1229 23.3755 23.2046 22.3253C23.2239 22.3004 23.2423 22.2797 23.2614 22.2607C23.2804 22.2417 23.3007 22.2236 23.326 22.2042C24.3762 21.1225 24.9545 19.6995 24.9545 18.1961C24.9545 15.0213 22.3713 12.4384 19.1964 12.4384Z" fill="#A1A1A1"/>
</svg>
