<svg width="60" height="30" viewBox="0 0 60 30" fill="none" xmlns="http://www.w3.org/2000/svg">
<rect x="0.5" y="0.5" width="59" height="29" rx="2.5" fill="#676AC6" stroke="#515398"/>
<path d="M20.26 9.736H25.18C25.18 12.544 23.32 14.488 20.188 15.376L19.684 14.392C22.168 13.72 23.632 12.412 23.848 10.744H20.26V9.736ZM22.744 16.648V18.796H27.376V16.648H22.744ZM21.532 19.792V15.664H28.588V19.792H21.532ZM27.352 9.076H28.588V15.22H27.352V12.796H25.204V11.776H27.352V9.076ZM36.0751 14.092L35.4151 15.028C34.4551 14.632 33.7831 13.9 33.3871 13.024C32.9911 14.02 32.2831 14.86 31.2511 15.316L30.5911 14.368C32.0431 13.708 32.7751 12.328 32.7751 11.092V9.712H33.9751V11.092C33.9751 12.304 34.6711 13.528 36.0751 14.092ZM32.4751 17.188V16.192H39.8191V19.936H38.5831V17.188H32.4751ZM38.6431 9.088H39.8191V15.652H38.6431V12.832H37.5031V15.592H36.3391V9.268H37.5031V11.824H38.6431V9.088Z" fill="white"/>
</svg>
