<svg width="82" height="40" viewBox="0 0 82 40" fill="none" xmlns="http://www.w3.org/2000/svg">
<rect x="0.5" y="0.5" width="81" height="39" rx="5.5" fill="white" stroke="#3D3D3D"/>
<path d="M42.358 14.052H48.238C48.238 17.454 46.138 19.778 42.386 20.814L41.658 19.386C44.43 18.63 45.984 17.23 46.278 15.522H42.358V14.052ZM45.718 22.494V24.608H50.562V22.494H45.718ZM43.898 26.05V21.038H52.382V26.05H43.898ZM50.534 13.324H52.382V20.506H50.534V17.86H48.308V16.362H50.534V13.324ZM60.9769 19.078L59.9969 20.478C58.9189 20.03 58.1769 19.26 57.7289 18.308C57.2529 19.4 56.4689 20.31 55.2789 20.828L54.2989 19.386C56.1049 18.588 56.8049 16.992 56.8049 15.522V14.024H58.5829V15.522C58.5829 16.95 59.2689 18.364 60.9769 19.078ZM56.5949 23.166V21.71H65.4709V26.218H63.6229V23.166H56.5949ZM63.7209 13.31H65.4709V21.136H63.7209V17.93H62.7129V21.066H60.9909V13.506H62.7129V16.446H63.7209V13.31Z" fill="#3D3D3D"/>
<path d="M23.1019 17.6605C22.7871 17.6605 22.5118 17.459 22.4166 17.1587C22.1537 16.3307 21.5292 15.6675 20.7031 15.3393C20.5246 15.2684 20.3845 15.1322 20.3083 14.9556C20.2322 14.7791 20.2292 14.5838 20.3005 14.4049C20.3093 14.3826 20.3195 14.3606 20.3303 14.3393C20.4544 14.1 20.6989 13.9514 20.969 13.9514C21.0599 13.9514 21.1492 13.9684 21.2345 14.0022C22.4629 14.4906 23.3936 15.4824 23.7874 16.7232C23.8455 16.9064 23.8291 17.101 23.7405 17.2716C23.6522 17.4423 23.5026 17.5683 23.3194 17.6264C23.2486 17.649 23.1757 17.6605 23.1019 17.6605Z" fill="#3D3D3D"/>
<path d="M28.2806 28C28.0886 28 27.9081 27.9252 27.7719 27.7893L23.7481 23.7654C22.4655 24.8153 20.8525 25.3926 19.1958 25.3926C15.2284 25.3926 12 22.1642 12 18.1964C12 14.2287 15.2284 11 19.1964 11C23.1645 11 26.3929 14.2284 26.3929 18.1964C26.3929 19.8531 25.8156 21.4658 24.7658 22.7487L28.7896 26.7726C28.9255 26.9085 29.0003 27.089 29.0003 27.2813C29.0003 27.4736 28.9255 27.6541 28.7896 27.79C28.6538 27.9258 28.4729 28 28.2806 28ZM19.1964 12.4384C16.0216 12.4384 13.4388 15.0213 13.4388 18.1961C13.4388 21.371 16.0216 23.9538 19.1964 23.9538C20.6999 23.9538 22.1229 23.3755 23.2046 22.3253C23.2239 22.3004 23.2423 22.2797 23.2614 22.2607C23.2804 22.2417 23.3007 22.2236 23.326 22.2042C24.3762 21.1225 24.9545 19.6995 24.9545 18.1961C24.9545 15.0213 22.3713 12.4384 19.1964 12.4384Z" fill="#3D3D3D"/>
<path d="M23.1019 17.6605C22.7871 17.6605 22.5118 17.459 22.4166 17.1587C22.1537 16.3307 21.5292 15.6675 20.7031 15.3393C20.5246 15.2684 20.3845 15.1322 20.3083 14.9556C20.2322 14.7791 20.2292 14.5838 20.3005 14.4049C20.3093 14.3826 20.3195 14.3606 20.3303 14.3393C20.4544 14.1 20.6989 13.9514 20.969 13.9514C21.0599 13.9514 21.1492 13.9684 21.2345 14.0022C22.4629 14.4906 23.3936 15.4824 23.7874 16.7232C23.8455 16.9064 23.8291 17.101 23.7405 17.2716C23.6522 17.4423 23.5026 17.5683 23.3194 17.6264C23.2486 17.649 23.1757 17.6605 23.1019 17.6605Z" stroke="#3D3D3D" stroke-width="0.3"/>
<path d="M28.2806 28C28.0886 28 27.9081 27.9252 27.7719 27.7893L23.7481 23.7654C22.4655 24.8153 20.8525 25.3926 19.1958 25.3926C15.2284 25.3926 12 22.1642 12 18.1964C12 14.2287 15.2284 11 19.1964 11C23.1645 11 26.3929 14.2284 26.3929 18.1964C26.3929 19.8531 25.8156 21.4658 24.7658 22.7487L28.7896 26.7726C28.9255 26.9085 29.0003 27.089 29.0003 27.2813C29.0003 27.4736 28.9255 27.6541 28.7896 27.79C28.6538 27.9258 28.4729 28 28.2806 28ZM19.1964 12.4384C16.0216 12.4384 13.4388 15.0213 13.4388 18.1961C13.4388 21.371 16.0216 23.9538 19.1964 23.9538C20.6999 23.9538 22.1229 23.3755 23.2046 22.3253C23.2239 22.3004 23.2423 22.2797 23.2614 22.2607C23.2804 22.2417 23.3007 22.2236 23.326 22.2042C24.3762 21.1225 24.9545 19.6995 24.9545 18.1961C24.9545 15.0213 22.3713 12.4384 19.1964 12.4384Z" stroke="#3D3D3D" stroke-width="0.3"/>
</svg>
