<svg width="60" height="30" viewBox="0 0 60 30" fill="none" xmlns="http://www.w3.org/2000/svg">
<rect width="60" height="30" rx="3" fill="#434574"/>
<path d="M20.164 9.616H25.204C25.204 12.532 23.404 14.524 20.188 15.412L19.564 14.188C21.94 13.54 23.272 12.34 23.524 10.876H20.164V9.616ZM23.044 16.852V18.664H27.196V16.852H23.044ZM21.484 19.9V15.604H28.756V19.9H21.484ZM27.172 8.992H28.756V15.148H27.172V12.88H25.264V11.596H27.172V8.992ZM36.1231 13.924L35.2831 15.124C34.3591 14.74 33.7231 14.08 33.3391 13.264C32.9311 14.2 32.2591 14.98 31.2391 15.424L30.3991 14.188C31.9471 13.504 32.5471 12.136 32.5471 10.876V9.592H34.0711V10.876C34.0711 12.1 34.6591 13.312 36.1231 13.924ZM32.3671 17.428V16.18H39.9751V20.044H38.3911V17.428H32.3671ZM38.4751 8.98H39.9751V15.688H38.4751V12.94H37.6111V15.628H36.1351V9.148H37.6111V11.668H38.4751V8.98Z" fill="white"/>
</svg>
