<svg width="95" height="30" viewBox="0 0 95 30" fill="none" xmlns="http://www.w3.org/2000/svg">
<path d="M0 3C0 1.34315 1.34315 0 3 0H92C93.6569 0 95 1.34315 95 3V30H0V3Z" fill="#A7A9D6"/>
<path d="M22.5948 18.536H26.8068V19.82H16.7988V18.536H21.0108V16.7H17.9748V10.736H25.6548V11.996H19.5828V13.076H25.4028V14.3H19.5828V15.452H25.7388V16.7H22.5948V18.536ZM31.7499 12.344V12.956C31.7499 14.756 32.6379 16.664 34.4859 17.432L33.6219 18.68C32.3379 18.128 31.4619 17.048 30.9699 15.716C30.4779 17.156 29.5899 18.368 28.2939 18.956L27.3939 17.696C29.2419 16.868 30.1419 14.84 30.1419 12.956V12.344H27.8379V11.036H34.0299V12.344H31.7499ZM35.0499 9.98H36.6339V21.032H35.0499V9.98ZM45.7289 9.968H47.3129V21.056H45.7289V9.968ZM41.3729 10.748C43.0409 10.748 44.2769 12.26 44.2769 14.684C44.2769 17.12 43.0409 18.644 41.3729 18.644C39.7049 18.644 38.4689 17.12 38.4689 14.684C38.4689 12.26 39.7049 10.748 41.3729 10.748ZM41.3729 12.176C40.5569 12.176 39.9929 13.052 39.9929 14.684C39.9929 16.328 40.5569 17.204 41.3729 17.204C42.1889 17.204 42.7529 16.328 42.7529 14.684C42.7529 13.052 42.1889 12.176 41.3729 12.176ZM53.804 19.844C55.28 19.844 56.036 19.592 56.036 19.028C56.036 18.464 55.28 18.224 53.804 18.224C52.328 18.224 51.572 18.464 51.572 19.028C51.572 19.592 52.328 19.844 53.804 19.844ZM53.804 17.024C56.192 17.024 57.644 17.744 57.644 19.028C57.644 20.312 56.192 21.044 53.804 21.044C51.416 21.044 49.976 20.312 49.976 19.028C49.976 17.744 51.416 17.024 53.804 17.024ZM52.664 14.3V15.224H54.968V14.312C54.62 14.348 54.236 14.372 53.828 14.372C53.408 14.372 53.024 14.348 52.664 14.3ZM53.828 11.348C52.328 11.348 51.464 11.648 51.464 12.272C51.464 12.872 52.328 13.184 53.828 13.184C55.34 13.184 56.204 12.872 56.204 12.272C56.204 11.648 55.34 11.348 53.828 11.348ZM56.552 15.224H58.82V16.472H48.836V15.224H51.08V13.892C50.288 13.532 49.832 12.98 49.832 12.272C49.832 10.952 51.392 10.148 53.828 10.148C56.276 10.148 57.836 10.952 57.836 12.272C57.836 12.992 57.368 13.544 56.552 13.904V15.224ZM65.2511 12.896V10.22H66.7271V20.552H65.2511V16.928H63.7151V15.656H65.2511V14.156H63.9191C63.4271 15.98 62.3231 17.516 60.2591 18.74L59.3591 17.636C61.5431 16.304 62.5031 14.708 62.7071 12.548H59.9831V11.288H64.2791C64.2791 11.852 64.2431 12.38 64.1831 12.896H65.2511ZM67.5191 9.968H69.0191V21.032H67.5191V9.968ZM77.0461 10.796V11.924H70.5661V10.796H73.0261V9.896H74.6101V10.796H77.0461ZM72.5821 13.844C72.5821 14.24 73.0621 14.468 73.8181 14.468C74.5621 14.468 75.0301 14.24 75.0301 13.844C75.0301 13.436 74.5621 13.232 73.8181 13.232C73.0621 13.232 72.5821 13.436 72.5821 13.844ZM77.1541 15.764L77.2621 16.82C74.9221 17.216 72.3901 17.252 70.4581 17.252L70.2541 16.064C71.0941 16.064 72.0301 16.064 73.0261 16.04V15.452C71.8261 15.272 71.0701 14.684 71.0701 13.844C71.0701 12.836 72.1741 12.2 73.8181 12.2C75.4381 12.2 76.5421 12.836 76.5421 13.844C76.5421 14.684 75.7861 15.272 74.6101 15.452V15.98C75.4741 15.932 76.3381 15.86 77.1541 15.764ZM71.7661 19.124V17.9H79.3981V21.044H77.8021V19.124H71.7661ZM77.8021 9.992H79.3981V17.468H77.8021V9.992Z" fill="white"/>
</svg>
