<svg width="95" height="30" viewBox="0 0 95 30" fill="none" xmlns="http://www.w3.org/2000/svg">
<path d="M0 3C0 1.34315 1.34315 0 3 0H92C93.6569 0 95 1.34315 95 3V30H0V3Z" fill="#C1C1C1"/>
<path d="M22.4148 18.632H26.7108V19.652H16.8948V18.632H21.1668V16.592H18.1068V10.904H25.5228V11.912H19.3668V13.22H25.2828V14.192H19.3668V15.608H25.6188V16.592H22.4148V18.632ZM31.5699 12.188V13.22C31.5699 15.02 32.6859 16.892 34.3779 17.612L33.6939 18.584C32.4339 18.032 31.4619 16.856 30.9579 15.452C30.4779 16.964 29.5059 18.248 28.2339 18.86L27.5259 17.876C29.2059 17.096 30.3219 15.08 30.3219 13.22V12.188H27.9099V11.168H33.9819V12.188H31.5699ZM35.2419 10.088H36.4899V20.924H35.2419V10.088ZM47.6489 15.212L47.1329 16.244C45.3569 15.896 43.8209 14.816 43.1249 13.376C42.4049 14.816 40.8689 15.896 39.1049 16.244L38.5769 15.212C40.7249 14.852 42.4649 13.232 42.4649 11.564V10.748H43.7729V11.564C43.7729 13.244 45.5129 14.852 47.6489 15.212ZM43.7249 18.56H48.0689V19.58H38.2529V18.56H42.4889V16.028H43.7249V18.56ZM53.816 11.48C52.256 11.48 51.236 12.008 51.236 12.872C51.236 13.748 52.256 14.276 53.816 14.276C55.364 14.276 56.384 13.748 56.384 12.872C56.384 12.008 55.364 11.48 53.816 11.48ZM53.816 15.272C51.524 15.272 49.964 14.336 49.964 12.872C49.964 11.42 51.524 10.484 53.816 10.484C56.096 10.484 57.656 11.42 57.656 12.872C57.656 14.336 56.096 15.272 53.816 15.272ZM58.748 16.196L58.76 17.216H56.312V20.924H55.052V17.216H52.58V20.924H51.32V17.216H48.92V16.196H58.748ZM65.4311 12.812H67.3511V10.088H68.5871V16.544H67.3511V13.82H65.4311V12.812ZM66.0551 15.224L65.4431 16.196C64.2431 15.776 63.3791 14.924 62.9231 13.88C62.4431 15.068 61.5311 16.028 60.2471 16.484L59.6111 15.5C61.2911 14.9 62.2631 13.46 62.2631 11.972V11.816H59.9711V10.82H65.7671V11.816H63.5111V11.96C63.5111 13.316 64.4351 14.66 66.0551 15.224ZM64.9871 19.976C66.5111 19.976 67.3991 19.592 67.3991 18.884C67.3991 18.176 66.5111 17.792 64.9871 17.792C63.4391 17.792 62.5631 18.176 62.5631 18.884C62.5631 19.592 63.4391 19.976 64.9871 19.976ZM64.9871 16.832C67.2431 16.832 68.6351 17.6 68.6351 18.884C68.6351 20.18 67.2431 20.936 64.9871 20.936C62.7191 20.936 61.3271 20.18 61.3271 18.884C61.3271 17.6 62.7191 16.832 64.9871 16.832ZM72.6181 13.628V15.404H77.7541V13.628H72.6181ZM75.7981 18.584H80.1061V19.604H70.2901V18.584H74.5621V16.4H71.3941V10.808H72.6181V12.632H77.7541V10.808H78.9781V16.4H75.7981V18.584Z" fill="white"/>
</svg>
