<svg width="95" height="30" viewBox="0 0 95 30" fill="none" xmlns="http://www.w3.org/2000/svg">
<path d="M0 3C0 1.34315 1.34315 0 3 0H92C93.6569 0 95 1.34315 95 3V30H0V3Z" fill="#C1C1C1"/>
<path d="M22.4148 18.632H26.7108V19.652H16.8948V18.632H21.1668V16.592H18.1068V10.904H25.5228V11.912H19.3668V13.22H25.2828V14.192H19.3668V15.608H25.6188V16.592H22.4148V18.632ZM31.5699 12.188V13.22C31.5699 15.02 32.6859 16.892 34.3779 17.612L33.6939 18.584C32.4339 18.032 31.4619 16.856 30.9579 15.452C30.4779 16.964 29.5059 18.248 28.2339 18.86L27.5259 17.876C29.2059 17.096 30.3219 15.08 30.3219 13.22V12.188H27.9099V11.168H33.9819V12.188H31.5699ZM35.2419 10.088H36.4899V20.924H35.2419V10.088ZM45.9209 10.076H47.1689V20.948H45.9209V10.076ZM41.3969 10.88C43.0169 10.88 44.1929 12.368 44.1929 14.696C44.1929 17.048 43.0169 18.524 41.3969 18.524C39.7889 18.524 38.6129 17.048 38.6129 14.696C38.6129 12.368 39.7889 10.88 41.3969 10.88ZM41.3969 11.996C40.4609 11.996 39.8009 13.016 39.8009 14.696C39.8009 16.4 40.4609 17.42 41.3969 17.42C42.3449 17.42 43.0049 16.4 43.0049 14.696C43.0049 13.016 42.3449 11.996 41.3969 11.996ZM53.804 19.976C55.388 19.976 56.288 19.64 56.288 18.98C56.288 18.332 55.388 17.984 53.804 17.984C52.22 17.984 51.332 18.332 51.332 18.98C51.332 19.64 52.22 19.976 53.804 19.976ZM53.804 17.036C56.144 17.036 57.536 17.744 57.536 18.98C57.536 20.228 56.144 20.924 53.804 20.924C51.476 20.924 50.072 20.228 50.072 18.98C50.072 17.744 51.476 17.036 53.804 17.036ZM52.484 14.252V15.356H55.148V14.252C54.752 14.312 54.308 14.348 53.828 14.348C53.348 14.348 52.88 14.312 52.484 14.252ZM53.828 11.228C52.208 11.228 51.236 11.612 51.236 12.308C51.236 13.004 52.208 13.4 53.828 13.4C55.436 13.4 56.408 13.004 56.408 12.308C56.408 11.612 55.436 11.228 53.828 11.228ZM56.384 15.356H58.724V16.34H48.92V15.356H51.248V13.916C50.432 13.568 49.964 13.016 49.964 12.308C49.964 11.036 51.452 10.268 53.828 10.268C56.192 10.268 57.692 11.036 57.692 12.308C57.692 13.016 57.212 13.568 56.384 13.928V15.356ZM65.5031 13.016V10.352H66.6551V20.396H65.5031V16.748H63.7271V15.74H65.5031V14.024H63.9191C63.4151 15.848 62.2751 17.42 60.2471 18.632L59.5391 17.756C61.7711 16.4 62.8511 14.636 63.0311 12.416H60.0671V11.42H64.2551C64.2551 11.972 64.2191 12.512 64.1351 13.016H65.5031ZM67.6871 10.088H68.8751V20.924H67.6871V10.088ZM77.0221 11V11.9H70.6861V11H73.2301V10.004H74.4781V11H77.0221ZM72.4141 13.844C72.4141 14.348 72.9781 14.636 73.8541 14.636C74.7421 14.636 75.3061 14.348 75.3061 13.844C75.3061 13.364 74.7421 13.076 73.8541 13.076C72.9781 13.076 72.4141 13.364 72.4141 13.844ZM77.2141 15.824L77.3101 16.676C74.9701 17.072 72.4381 17.108 70.5061 17.108L70.3501 16.148C71.2141 16.148 72.2101 16.148 73.2301 16.112V15.44C72.0061 15.296 71.2381 14.708 71.2381 13.844C71.2381 12.86 72.2821 12.236 73.8541 12.236C75.4381 12.236 76.4821 12.86 76.4821 13.844C76.4821 14.708 75.7021 15.296 74.4781 15.44V16.064C75.4141 16.016 76.3381 15.944 77.2141 15.824ZM71.8741 18.836V17.852H79.2181V20.936H77.9821V18.836H71.8741ZM77.9821 10.1H79.2181V17.396H77.9821V10.1Z" fill="white"/>
</svg>
