<svg width="95" height="30" viewBox="0 0 95 30" fill="none" xmlns="http://www.w3.org/2000/svg">
<path d="M0 3C0 1.34315 1.34315 0 3 0H92C93.6569 0 95 1.34315 95 3V30H0V3Z" fill="#A7A9D6"/>
<path d="M17.2188 11.348H21.5748C21.5748 14.444 20.6628 16.976 17.5788 18.776L16.6548 17.672C18.8748 16.376 19.8108 14.78 20.0148 12.608H17.2188V11.348ZM24.7548 9.98H26.2668V21.032H24.7548V15.416H23.7708V20.564H22.2948V10.268H23.7708V14.144H24.7548V9.98ZM35.1339 12.572H33.1659V13.388H35.1339V12.572ZM31.6179 14.12V12.92H29.5179V14.12H31.6179ZM33.1659 14.588V15.356H27.9459V10.436H29.5179V11.732H31.6179V10.436H33.1659V11.372H35.1339V9.992H36.7179V15.656H35.1339V14.588H33.1659ZM31.0059 19.676H37.0299V20.9H29.4459V17.888H35.1459V17.3H29.4219V16.076H36.7179V19.028H31.0059V19.676ZM46.6409 14.336L45.0809 14.18C45.3329 13.196 45.3689 12.452 45.3689 11.72H39.2969V10.472H46.9529V11.384C46.9529 12.26 46.9529 13.196 46.6409 14.336ZM43.0889 19.844C44.5889 19.844 45.4409 19.544 45.4409 18.956C45.4409 18.356 44.5889 18.056 43.0889 18.056C41.6009 18.056 40.7489 18.356 40.7489 18.956C40.7489 19.544 41.6009 19.844 43.0889 19.844ZM43.0889 16.868C45.4769 16.868 47.0129 17.66 47.0129 18.956C47.0129 20.24 45.4769 21.032 43.0889 21.032C40.7129 21.032 39.1769 20.24 39.1769 18.956C39.1769 17.66 40.7129 16.868 43.0889 16.868ZM43.4489 14.924H48.1289V16.172H38.1809V14.924H41.8649V12.992H43.4489V14.924ZM53.12 10.832V12.44C53.12 14.492 53.996 16.508 55.868 17.312L54.968 18.596C53.696 18.02 52.844 16.928 52.352 15.572C51.86 17.048 50.96 18.236 49.64 18.86L48.692 17.552C50.624 16.724 51.536 14.588 51.536 12.44V10.832H53.12ZM56.408 9.968H57.992V21.056H56.408V9.968ZM63.7871 12.344V12.956C63.7871 14.756 64.6751 16.664 66.5231 17.432L65.6591 18.68C64.3751 18.128 63.4991 17.048 63.0071 15.716C62.5151 17.156 61.6271 18.368 60.3311 18.956L59.4311 17.696C61.2791 16.868 62.1791 14.84 62.1791 12.956V12.344H59.8751V11.036H66.0671V12.344H63.7871ZM67.0871 9.98H68.6711V21.032H67.0871V9.98ZM70.6981 11.108H75.9061C75.9061 14.42 74.6461 17.264 70.9741 19.124L70.0861 17.912C72.6541 16.592 74.0221 14.84 74.3101 12.392H70.6981V11.108ZM80.3941 14.192V15.5H78.8461V21.008H77.2621V9.968H78.8461V14.192H80.3941Z" fill="white"/>
</svg>
