<svg width="95" height="30" viewBox="0 0 95 30" fill="none" xmlns="http://www.w3.org/2000/svg">
<path d="M0 3C0 1.34315 1.34315 0 3 0H92C93.6569 0 95 1.34315 95 3V30H0V3Z" fill="#A7A9D6"/>
<path d="M21.5948 18.536H25.8068V19.82H15.7988V18.536H20.0108V16.7H16.9748V10.736H24.6548V11.996H18.5828V13.076H24.4028V14.3H18.5828V15.452H24.7388V16.7H21.5948V18.536ZM30.7499 12.344V12.956C30.7499 14.756 31.6379 16.664 33.4859 17.432L32.6219 18.68C31.3379 18.128 30.4619 17.048 29.9699 15.716C29.4779 17.156 28.5899 18.368 27.2939 18.956L26.3939 17.696C28.2419 16.868 29.1419 14.84 29.1419 12.956V12.344H26.8379V11.036H33.0299V12.344H30.7499ZM34.0499 9.98H35.6339V21.032H34.0499V9.98ZM46.8289 15.02L46.1809 16.328C44.2369 15.98 42.8209 14.948 42.1009 13.58C41.3809 14.936 39.9769 15.98 38.0449 16.328L37.3969 15.02C39.8929 14.612 41.2609 12.92 41.2609 11.384V10.592H42.9529V11.384C42.9529 12.956 44.3089 14.612 46.8289 15.02ZM42.9049 18.452H47.1649V19.724H37.1569V18.452H41.3209V15.98H42.9049V18.452ZM52.816 11.612C51.364 11.612 50.44 12.044 50.44 12.824C50.44 13.616 51.364 14.036 52.816 14.036C54.256 14.036 55.18 13.616 55.18 12.824C55.18 12.044 54.256 11.612 52.816 11.612ZM52.816 15.296C50.452 15.296 48.82 14.336 48.82 12.824C48.82 11.324 50.452 10.352 52.816 10.352C55.168 10.352 56.812 11.324 56.812 12.824C56.812 14.336 55.168 15.296 52.816 15.296ZM57.844 16.124V17.408H55.528V21.02H53.92V17.408H51.7V21.02H50.104V17.408H47.836V16.124H57.844ZM64.5151 12.644H66.1711V9.98H67.7551V16.556H66.1711V13.928H64.5151V12.644ZM65.1751 15.02L64.4071 16.256C63.2071 15.86 62.3791 15.08 61.8991 14.108C61.4191 15.224 60.5431 16.124 59.2591 16.556L58.4551 15.308C60.2071 14.696 61.0111 13.292 61.0591 11.912H58.8871V10.64H64.8271V11.912H62.6791C62.7271 13.172 63.4951 14.468 65.1751 15.02ZM64.0231 19.844C65.4631 19.844 66.2191 19.544 66.2191 18.92C66.2191 18.296 65.4631 17.996 64.0231 17.996C62.5711 17.996 61.8151 18.296 61.8151 18.92C61.8151 19.544 62.5711 19.844 64.0231 19.844ZM64.0231 16.796C66.3631 16.796 67.8031 17.576 67.8031 18.92C67.8031 20.264 66.3631 21.044 64.0231 21.044C61.6711 21.044 60.2311 20.264 60.2311 18.92C60.2311 17.576 61.6711 16.796 64.0231 16.796ZM71.8221 13.628V15.176H76.5501V13.628H71.8221ZM74.9781 18.464H79.2021V19.748H69.1941V18.464H73.3941V16.436H70.2501V10.664H71.8221V12.38H76.5501V10.664H78.1101V16.436H74.9781V18.464Z" fill="white"/>
</svg>
