<svg width="95" height="30" viewBox="0 0 95 30" fill="none" xmlns="http://www.w3.org/2000/svg">
<path d="M0 3C0 1.34315 1.34315 0 3 0H92C93.6569 0 95 1.34315 95 3V30H0V3Z" fill="#C1C1C1"/>
<path d="M17.2908 11.456H21.5508C21.5508 14.348 20.6028 16.904 17.5548 18.656L16.8348 17.78C19.1748 16.424 20.1588 14.648 20.3268 12.464H17.2908V11.456ZM24.9348 10.088H26.1108V20.924H24.9348V15.332H23.6988V20.42H22.5348V10.376H23.6988V14.324H24.9348V10.088ZM35.3019 12.5H33.0579V13.52H35.3019V12.5ZM31.8459 14.348V12.932H29.2899V14.348H31.8459ZM33.0579 14.48V15.332H28.0659V10.568H29.2899V11.984H31.8459V10.568H33.0579V11.552H35.3019V10.088H36.5499V15.704H35.3019V14.48H33.0579ZM30.7299 19.82H36.9099V20.792H29.5059V17.984H35.3259V17.156H29.4939V16.184H36.5499V18.896H30.7299V19.82ZM46.5329 14.396L45.3209 14.264C45.5969 13.196 45.6089 12.416 45.6089 11.6H39.3929V10.604H46.8329V11.516C46.8329 12.38 46.8329 13.28 46.5329 14.396ZM43.1129 19.976C44.7089 19.976 45.6689 19.58 45.6689 18.896C45.6689 18.224 44.7089 17.828 43.1129 17.828C41.5049 17.828 40.5209 18.224 40.5209 18.896C40.5209 19.58 41.5049 19.976 43.1129 19.976ZM43.1129 16.88C45.4169 16.88 46.9049 17.648 46.9049 18.896C46.9049 20.156 45.4169 20.924 43.1129 20.924C40.7729 20.924 39.2969 20.156 39.2969 18.896C39.2969 17.648 40.7729 16.88 43.1129 16.88ZM43.3529 15.044H48.0329V16.04H38.2649V15.044H42.1049V13.052H43.3529V15.044ZM52.928 10.988V12.764C52.928 14.756 54.032 16.748 55.736 17.516L55.016 18.5C53.768 17.912 52.82 16.712 52.328 15.248C51.836 16.82 50.876 18.104 49.568 18.74L48.836 17.708C50.564 16.928 51.692 14.852 51.692 12.764V10.988H52.928ZM56.6 10.076H57.848V20.948H56.6V10.076ZM63.6071 12.188V13.22C63.6071 15.02 64.7231 16.892 66.4151 17.612L65.7311 18.584C64.4711 18.032 63.4991 16.856 62.9951 15.452C62.5151 16.964 61.5431 18.248 60.2711 18.86L59.5631 17.876C61.2431 17.096 62.3591 15.08 62.3591 13.22V12.188H59.9471V11.168H66.0191V12.188H63.6071ZM67.2791 10.088H68.5271V20.924H67.2791V10.088ZM70.8181 11.228H75.8461C75.8461 14.372 74.5021 17.156 70.9621 18.944L70.2781 17.996C72.9301 16.64 74.3581 14.732 74.6101 12.236H70.8181V11.228ZM80.3221 14.36V15.392H78.6781V20.912H77.4421V10.076H78.6781V14.36H80.3221Z" fill="white"/>
</svg>
