<svg width="95" height="30" viewBox="0 0 95 30" fill="none" xmlns="http://www.w3.org/2000/svg">
<path d="M0 3C0 1.34315 1.34315 0 3 0H92C93.6569 0 95 1.34315 95 3V30H0V3Z" fill="#676AC6"/>
<path d="M20.8308 16.472V18.548H22.7388V16.472H20.8308ZM20.6508 12.116V15.224H22.9068V12.116H20.6508ZM24.3108 18.548H26.8068V19.82H16.7868V18.548H19.2588V16.472H17.6388V15.224H19.0788V12.116H17.5788V10.856H25.9788V12.116H24.4788V15.224H25.9548V16.472H24.3108V18.548ZM28.4859 14.96L27.9219 13.724C30.0579 13.484 31.1619 12.584 31.3539 11.708H28.3899V10.448H36.5739V11.708H33.5979C33.7779 12.596 34.8699 13.484 37.0299 13.724L36.4539 14.96C34.4019 14.732 33.0579 13.88 32.4699 12.752C31.9059 13.88 30.5499 14.732 28.4859 14.96ZM30.2139 17.66V19.58H36.3699V20.84H28.6299V17.66H30.2139ZM27.4659 15.488H37.4859V16.736H33.4059V18.608H31.8219V16.736H27.4659V15.488ZM46.6409 14.336L45.0809 14.18C45.3329 13.196 45.3689 12.452 45.3689 11.72H39.2969V10.472H46.9529V11.384C46.9529 12.26 46.9529 13.196 46.6409 14.336ZM43.0889 19.844C44.5889 19.844 45.4409 19.544 45.4409 18.956C45.4409 18.356 44.5889 18.056 43.0889 18.056C41.6009 18.056 40.7489 18.356 40.7489 18.956C40.7489 19.544 41.6009 19.844 43.0889 19.844ZM43.0889 16.868C45.4769 16.868 47.0129 17.66 47.0129 18.956C47.0129 20.24 45.4769 21.032 43.0889 21.032C40.7129 21.032 39.1769 20.24 39.1769 18.956C39.1769 17.66 40.7129 16.868 43.0889 16.868ZM43.4489 14.924H48.1289V16.172H38.1809V14.924H41.8649V12.992H43.4489V14.924ZM53.12 10.832V12.44C53.12 14.492 53.996 16.508 55.868 17.312L54.968 18.596C53.696 18.02 52.844 16.928 52.352 15.572C51.86 17.048 50.96 18.236 49.64 18.86L48.692 17.552C50.624 16.724 51.536 14.588 51.536 12.44V10.832H53.12ZM56.408 9.968H57.992V21.056H56.408V9.968ZM63.7871 12.344V12.956C63.7871 14.756 64.6751 16.664 66.5231 17.432L65.6591 18.68C64.3751 18.128 63.4991 17.048 63.0071 15.716C62.5151 17.156 61.6271 18.368 60.3311 18.956L59.4311 17.696C61.2791 16.868 62.1791 14.84 62.1791 12.956V12.344H59.8751V11.036H66.0671V12.344H63.7871ZM67.0871 9.98H68.6711V21.032H67.0871V9.98ZM70.6981 11.108H75.9061C75.9061 14.42 74.6461 17.264 70.9741 19.124L70.0861 17.912C72.6541 16.592 74.0221 14.84 74.3101 12.392H70.6981V11.108ZM80.3941 14.192V15.5H78.8461V21.008H77.2621V9.968H78.8461V14.192H80.3941Z" fill="white"/>
</svg>
