<svg width="95" height="30" viewBox="0 0 95 30" fill="none" xmlns="http://www.w3.org/2000/svg">
<path d="M0 3C0 1.34315 1.34315 0 3 0H92C93.6569 0 95 1.34315 95 3V30H0V3Z" fill="#676AC6"/>
<path d="M22.5948 18.536H26.8068V19.82H16.7988V18.536H21.0108V16.7H17.9748V10.736H25.6548V11.996H19.5828V13.076H25.4028V14.3H19.5828V15.452H25.7388V16.7H22.5948V18.536ZM31.7499 12.344V12.956C31.7499 14.756 32.6379 16.664 34.4859 17.432L33.6219 18.68C32.3379 18.128 31.4619 17.048 30.9699 15.716C30.4779 17.156 29.5899 18.368 28.2939 18.956L27.3939 17.696C29.2419 16.868 30.1419 14.84 30.1419 12.956V12.344H27.8379V11.036H34.0299V12.344H31.7499ZM35.0499 9.98H36.6339V21.032H35.0499V9.98ZM47.8289 15.02L47.1809 16.328C45.2369 15.98 43.8209 14.948 43.1009 13.58C42.3809 14.936 40.9769 15.98 39.0449 16.328L38.3969 15.02C40.8929 14.612 42.2609 12.92 42.2609 11.384V10.592H43.9529V11.384C43.9529 12.956 45.3089 14.612 47.8289 15.02ZM43.9049 18.452H48.1649V19.724H38.1569V18.452H42.3209V15.98H43.9049V18.452ZM53.816 11.612C52.364 11.612 51.44 12.044 51.44 12.824C51.44 13.616 52.364 14.036 53.816 14.036C55.256 14.036 56.18 13.616 56.18 12.824C56.18 12.044 55.256 11.612 53.816 11.612ZM53.816 15.296C51.452 15.296 49.82 14.336 49.82 12.824C49.82 11.324 51.452 10.352 53.816 10.352C56.168 10.352 57.812 11.324 57.812 12.824C57.812 14.336 56.168 15.296 53.816 15.296ZM58.844 16.124V17.408H56.528V21.02H54.92V17.408H52.7V21.02H51.104V17.408H48.836V16.124H58.844ZM65.5151 12.644H67.1711V9.98H68.7551V16.556H67.1711V13.928H65.5151V12.644ZM66.1751 15.02L65.4071 16.256C64.2071 15.86 63.3791 15.08 62.8991 14.108C62.4191 15.224 61.5431 16.124 60.2591 16.556L59.4551 15.308C61.2071 14.696 62.0111 13.292 62.0591 11.912H59.8871V10.64H65.8271V11.912H63.6791C63.7271 13.172 64.4951 14.468 66.1751 15.02ZM65.0231 19.844C66.4631 19.844 67.2191 19.544 67.2191 18.92C67.2191 18.296 66.4631 17.996 65.0231 17.996C63.5711 17.996 62.8151 18.296 62.8151 18.92C62.8151 19.544 63.5711 19.844 65.0231 19.844ZM65.0231 16.796C67.3631 16.796 68.8031 17.576 68.8031 18.92C68.8031 20.264 67.3631 21.044 65.0231 21.044C62.6711 21.044 61.2311 20.264 61.2311 18.92C61.2311 17.576 62.6711 16.796 65.0231 16.796ZM72.8221 13.628V15.176H77.5501V13.628H72.8221ZM75.9781 18.464H80.2021V19.748H70.1941V18.464H74.3941V16.436H71.2501V10.664H72.8221V12.38H77.5501V10.664H79.1101V16.436H75.9781V18.464Z" fill="white"/>
</svg>
